<svg xmlns="http://www.w3.org/2000/svg" width="64" height="13" viewBox="0 0 64 13" fill="none">
  <path fill="#ffffff" d="M63.5686 0.59668L63.9976 3.85715L63.0415 3.95521L62.2325 1.73662C61.9465 1.69576 61.685 1.67533 61.448 1.67533H60.7371C60.6064 1.67533 60.4429 1.67533 60.2468 1.67533C60.0507 1.67533 59.8791 1.6835 59.732 1.69985C59.732 1.79791 59.7279 2.04305 59.7197 2.43529C59.7116 2.82753 59.7034 3.28922 59.6952 3.82038C59.6952 4.34336 59.6952 4.86226 59.6952 5.37707V7.755C59.6952 8.56399 59.7034 9.27084 59.7197 9.87554C59.7361 10.4802 59.7483 10.897 59.7565 11.1258L61.4235 11.3587L61.3622 12.2167H56.018L55.9567 11.3587L57.6237 11.1258C57.6237 10.897 57.6319 10.4802 57.6482 9.87554C57.6646 9.27084 57.6728 8.56399 57.6728 7.755V5.37707C57.6728 4.86226 57.6728 4.34336 57.6728 3.82038C57.6728 3.28922 57.6687 2.82753 57.6605 2.43529C57.6605 2.04305 57.6564 1.79791 57.6482 1.69985C57.5175 1.6835 57.35 1.67533 57.1457 1.67533C56.9496 1.67533 56.7821 1.67533 56.6431 1.67533H55.92C55.6666 1.67533 55.4051 1.69576 55.1355 1.73662L54.3387 4.00424L53.3582 3.88166L53.7749 0.59668C54.0854 0.613023 54.445 0.629366 54.8536 0.645709C55.2621 0.662053 55.6299 0.670224 55.9567 0.670224H61.3868C61.7136 0.670224 62.0813 0.662053 62.4899 0.645709C62.8985 0.629366 63.2581 0.613023 63.5686 0.59668Z"/>
  <path fill="#ffffff" d="M49.6687 9.14003V5.18089C49.6687 4.09407 49.6564 3.27282 49.6319 2.71715C49.6156 2.15331 49.591 1.83871 49.5584 1.77333L48.2223 1.50367L48.2713 0.670166H52.1569L52.206 1.50367L50.9925 1.77333C50.9761 1.83871 50.9516 2.15331 50.9189 2.71715C50.8862 3.27282 50.8699 4.09407 50.8699 5.18089V9.56904C50.8699 10.043 50.874 10.5006 50.8822 10.9419C50.8903 11.3831 50.8944 11.8326 50.8944 12.2902H49.9138L42.4491 2.77844L43.0864 2.75393V7.5956C43.0864 8.73962 43.0987 9.59356 43.1232 10.1574C43.1477 10.7131 43.1722 11.0358 43.1968 11.1257L44.5573 11.3954L44.496 12.2166H40.5614L40.5124 11.3954L41.7259 11.1257C41.7586 11.0358 41.7872 10.7049 41.8117 10.1329C41.8362 9.56087 41.8484 8.71511 41.8484 7.5956V4.46996C41.8484 3.68549 41.8362 3.06445 41.8117 2.60684C41.7872 2.14923 41.7586 1.87139 41.7259 1.77333L40.5124 1.50367L40.5614 0.670166H43.3929L50.1712 9.14003H49.6687Z"/>
  <path fill="#ffffff" d="M28.1079 12.2166L28.0834 11.3954L29.0517 11.1257L33.0844 1.08691L34.3837 0.314697L38.7473 11.1257L39.7402 11.3954L39.6789 12.2166H35.2907L35.254 11.3954L36.4674 11.1257L35.3275 8.30653L35.1069 7.6814L33.0231 2.5578L33.5134 2.44749L31.6135 7.6814L31.3929 8.26975L30.3878 11.1257L31.6135 11.3954L31.5767 12.2166H28.1079ZM30.9761 8.68651V7.54657C31.2294 7.55474 31.5563 7.567 31.9567 7.58334C32.3571 7.59151 32.8515 7.5956 33.4399 7.5956C34.0282 7.5956 34.5267 7.59151 34.9353 7.58334C35.3438 7.567 35.6666 7.55474 35.9036 7.54657V8.66199C35.5195 8.66199 35.1232 8.6579 34.7146 8.64973C34.3061 8.63339 33.8811 8.62522 33.4399 8.62522C33.0068 8.62522 32.59 8.63339 32.1896 8.64973C31.7974 8.6579 31.3929 8.67016 30.9761 8.68651Z"/>
  <path fill="#ffffff" d="M26.7473 12.3148C26.3796 12.2739 26.0078 12.2453 25.6319 12.229C25.2642 12.2208 24.9251 12.2167 24.6145 12.2167H17.8485L17.7872 11.3955L19.0252 11.1258C19.0579 11.0359 19.0824 10.7336 19.0987 10.2187C19.1151 9.69576 19.1232 9.01343 19.1232 8.17176V4.75194C19.1232 3.87758 19.1151 3.18299 19.0987 2.66818C19.0824 2.15337 19.0579 1.85511 19.0252 1.77339L17.7872 1.50373L17.8485 0.670224H24.0875C24.398 0.670224 24.7657 0.666138 25.1906 0.657967C25.6156 0.649795 26.016 0.629366 26.3919 0.59668L26.8209 3.29331L25.8525 3.42814L25.1661 1.76113C24.9292 1.70393 24.6595 1.67533 24.3571 1.67533H22.3714C22.1181 1.67533 21.8893 1.6835 21.685 1.69985C21.4807 1.70802 21.2969 1.72028 21.1334 1.73662C21.1253 1.84285 21.1171 2.12068 21.1089 2.57012C21.1008 3.01956 21.0967 3.50986 21.0967 4.04101V8.95623C21.0967 9.43835 21.1008 9.87962 21.1089 10.28C21.1171 10.6723 21.1253 10.9378 21.1334 11.0768C21.3459 11.1013 21.5584 11.1176 21.7708 11.1258C21.9915 11.134 22.253 11.138 22.5553 11.138H24.1855C24.6431 11.138 24.9618 11.134 25.1416 11.1258C25.3214 11.1176 25.4685 11.0972 25.5829 11.0645L26.6248 9.17686L27.5931 9.34847L26.7473 12.3148ZM24.4552 8.20853L24.2468 6.89699C24.0589 6.83979 23.7279 6.81118 23.254 6.81118H21.9179C21.7218 6.81118 21.5257 6.81936 21.3296 6.8357C21.1334 6.84387 20.9455 6.85613 20.7657 6.87247V5.70802C21.1253 5.73253 21.5093 5.74479 21.9179 5.74479H23.254C23.7606 5.74479 24.0916 5.73253 24.2468 5.70802L24.4552 4.34745H25.3868V8.20853H24.4552Z"/>
  <path fill="#ffffff" d="M1.06806 0.670166H4.69625L8.81474 9.86322H8.39799L12.3326 0.670166H15.8137L15.875 1.50367L14.6615 1.76108C14.6534 1.91634 14.6493 2.23094 14.6493 2.7049C14.6574 3.17068 14.6656 3.71817 14.6738 4.34739L14.7718 7.91429C14.8045 8.84586 14.829 9.57313 14.8454 10.0961C14.8699 10.6191 14.8903 10.9623 14.9067 11.1257L16.1324 11.3954L16.0956 12.2166H11.5481L11.4869 11.3954L12.7126 11.1257C12.7208 10.9541 12.7249 10.6559 12.7249 10.2309C12.7249 9.79785 12.7208 9.09918 12.7126 8.13493L12.6758 1.24626H13.301L8.55734 12.2657H7.71157L2.71055 1.22175H3.446L3.45826 7.93881C3.45826 9.00929 3.46234 9.7815 3.47051 10.2555C3.48686 10.7212 3.49911 11.0113 3.50728 11.1257L4.8556 11.3954L4.80657 12.2166H0.786141L0.724854 11.3954L2.08543 11.1257C2.10177 10.9868 2.11403 10.664 2.1222 10.1574C2.13854 9.64259 2.1508 9.00112 2.15897 8.23299L2.22026 4.3719C2.2366 3.71817 2.24069 3.17068 2.23251 2.72941C2.22434 2.28814 2.22026 1.96945 2.22026 1.77333L1.00677 1.50367L1.06806 0.670166Z"/>
</svg>
