<svg xmlns="http://www.w3.org/2000/svg" width="64" height="13" viewBox="0 0 64 13" fill="none">
  <path fill="#ffffff" d="M62.8124 1.62332L58.7136 8.04307L59.3309 6.49986V8.4011C59.3309 9.23237 59.3433 9.862 59.368 10.29C59.3926 10.7097 59.4132 10.9608 59.4297 11.0431L60.8124 11.29L60.7754 12.1418H55.9235L55.8618 11.29L57.2445 11.0431C57.261 10.9608 57.2815 10.7097 57.3062 10.29C57.3309 9.862 57.3433 9.23237 57.3433 8.4011V6.49986L57.8247 8.04307L53.8741 1.62332L52.8865 1.35171L52.9235 0.512207H57.3803L57.442 1.35171L56.2322 1.62332L59.0346 6.20357H58.6766L61.3926 1.62332L59.9976 1.35171L60.0593 0.512207H63.763L63.8247 1.35171L62.8124 1.62332Z"/>
  <path fill="#ffffff" d="M51.9728 12.2406C51.6107 12.2077 51.2033 12.183 50.7506 12.1665C50.3062 12.1501 49.9399 12.1418 49.6518 12.1418H43.4296L43.3926 11.3147L44.6271 11.0431C44.6765 10.7797 44.7012 9.78793 44.7012 8.06776V4.62332C44.7012 3.77558 44.693 3.08834 44.6765 2.56159C44.6683 2.03484 44.6518 1.73031 44.6271 1.64801L43.3926 1.35171L43.4296 0.512207H48.4296L48.4913 1.38875L46.837 1.64801C46.8123 1.71385 46.7876 1.9978 46.7629 2.49986C46.7383 3.00192 46.7259 3.70974 46.7259 4.62332V8.06776C46.7259 8.77558 46.73 9.38052 46.7383 9.88258C46.7465 10.3846 46.7629 10.7097 46.7876 10.8579C47.158 10.9155 47.6107 10.9443 48.1457 10.9443H49.3802C49.693 10.9443 49.9564 10.9361 50.1704 10.9196C50.3843 10.8949 50.5819 10.8702 50.7629 10.8455L51.837 8.82085L52.8247 9.05542L51.9728 12.2406Z"/>
  <path fill="#ffffff" d="M32.9976 12.1418L32.9359 11.3147L34.084 11.0431C34.1169 10.9608 34.1416 10.6974 34.1581 10.2529C34.1745 9.8085 34.1828 9.11303 34.1828 8.16653L34.2075 4.42579C34.2075 3.51221 34.1951 2.83319 34.1704 2.38875C34.1457 1.94431 34.1252 1.68916 34.1087 1.62332L32.8865 1.35171L32.9359 0.512207H37.4173C38.8247 0.512207 39.9029 0.804388 40.6519 1.38875C41.4009 1.96488 41.7754 2.79616 41.7754 3.88258C41.7754 4.61509 41.5819 5.26118 41.1951 5.82085C40.8165 6.37229 40.298 6.80439 39.6396 7.11715C38.9811 7.42167 38.228 7.57394 37.3803 7.57394C37.1005 7.57394 36.8371 7.56159 36.5902 7.5369C36.3515 7.50398 36.1252 7.47105 35.9112 7.43813V6.26529C36.1581 6.3476 36.3968 6.41344 36.6272 6.46282C36.8577 6.50398 37.0964 6.52455 37.3433 6.52455C38.0675 6.52455 38.6313 6.32702 39.0346 5.93196C39.4461 5.5369 39.6519 4.94019 39.6519 4.14184C39.6519 3.22003 39.4132 2.54513 38.9359 2.11715C38.4667 1.68093 37.8618 1.46282 37.121 1.46282H36.2322C36.2239 1.59451 36.2157 1.93196 36.2075 2.47517C36.1992 3.01838 36.1951 3.66859 36.1951 4.42579L36.2075 8.16653C36.2075 9.11303 36.2198 9.80439 36.2445 10.2406C36.2774 10.6768 36.298 10.9361 36.3062 11.0184L37.9359 11.2776L37.8741 12.1418H32.9976Z"/>
  <path fill="#ffffff" d="M15.9975 0.512207H19.6519L23.8 9.77147H23.3803L27.3432 0.512207H30.8494L30.9111 1.35171L29.6889 1.61097C29.6807 1.76735 29.6765 2.08422 29.6765 2.56159C29.6848 3.03073 29.693 3.58217 29.7012 4.21591L29.8 7.8085C29.8329 8.74677 29.8576 9.47929 29.8741 10.006C29.8988 10.5328 29.9193 10.8785 29.9358 11.0431L31.1704 11.3147L31.1333 12.1418H26.5531L26.4914 11.3147L27.7259 11.0431C27.7342 10.8702 27.7383 10.5698 27.7383 10.1418C27.7383 9.70562 27.7342 9.00192 27.7259 8.03073L27.6889 1.09245H28.3185L23.5407 12.1912H22.6889L17.6519 1.06776H18.3926L18.4049 7.83319C18.4049 8.91138 18.4091 9.68916 18.4173 10.1665C18.4337 10.6357 18.4461 10.9278 18.4543 11.0431L19.8123 11.3147L19.763 12.1418H15.7136L15.6519 11.3147L17.0222 11.0431C17.0387 10.9032 17.051 10.5781 17.0593 10.0678C17.0757 9.54924 17.0881 8.90315 17.0963 8.12949L17.158 4.2406C17.1745 3.58217 17.1786 3.03073 17.1704 2.58628C17.1621 2.14184 17.158 1.82085 17.158 1.62332L15.9358 1.35171L15.9975 0.512207Z"/>
  <path fill="#ffffff" d="M9.51607 12.1418L9.45435 11.3147L10.6766 11.0431C10.7095 10.9525 10.7342 10.648 10.7506 10.1295C10.7671 9.60274 10.7753 8.9155 10.7753 8.06776V4.62332C10.7753 3.74266 10.7671 3.04307 10.7506 2.52455C10.7342 2.00603 10.7095 1.70562 10.6766 1.62332L9.45435 1.35171L9.51607 0.512207H14.084L14.1334 1.35171L12.8988 1.62332C12.8247 1.7797 12.7877 2.7797 12.7877 4.62332V8.06776C12.7877 9.862 12.8247 10.8538 12.8988 11.0431L14.1334 11.3147L14.084 12.1418H9.51607Z"/>
  <path fill="#ffffff" d="M3.46669 12.3147C2.89056 12.3147 2.28562 12.2447 1.65188 12.1048C1.02637 11.9567 0.507847 11.7674 0.096324 11.5369L-0.00244141 8.83322L0.972867 8.75914L1.56546 10.6233C2.20744 11.0349 2.93172 11.2406 3.7383 11.2406C4.3885 11.2406 4.89468 11.0966 5.25682 10.8085C5.61896 10.5122 5.80003 10.1048 5.80003 9.5863C5.80003 9.1254 5.66011 8.7468 5.38027 8.4505C5.10867 8.14597 4.75065 7.88671 4.3062 7.67272C3.86999 7.45873 3.40497 7.24885 2.91114 7.04309C2.42554 6.8291 1.96052 6.58219 1.51608 6.30235C1.07986 6.02252 0.721838 5.67684 0.442003 5.26531C0.170398 4.84556 0.0345956 4.3147 0.0345956 3.67272C0.0345956 2.66861 0.442003 1.85791 1.25682 1.24062C2.07986 0.623339 3.14571 0.314697 4.45435 0.314697C4.94818 0.314697 5.43789 0.35585 5.92348 0.438154C6.41731 0.512228 6.84118 0.63157 7.19509 0.796179L7.36793 3.41346L6.38027 3.48754L5.80003 1.7221C5.36381 1.47519 4.84118 1.35173 4.23213 1.35173C3.60661 1.35173 3.10044 1.50811 2.71361 1.82087C2.32678 2.1254 2.13336 2.53692 2.13336 3.05544C2.13336 3.51634 2.27328 3.90317 2.55311 4.21593C2.83295 4.52046 3.19509 4.78795 3.63953 5.0184C4.08398 5.24885 4.55311 5.47108 5.04694 5.68507C5.54077 5.89906 6.0099 6.14597 6.45435 6.42581C6.89879 6.69741 7.26093 7.03486 7.54077 7.43815C7.8206 7.84145 7.96052 8.34762 7.96052 8.95667C7.96052 9.9361 7.54077 10.7427 6.70126 11.3764C5.86999 12.0019 4.7918 12.3147 3.46669 12.3147Z"/>
</svg>
