<svg xmlns="http://www.w3.org/2000/svg" width="22" height="13" viewBox="0 0 22 13" fill="none">
  <path fill="#ffffff" d="M21.1402 3.07596L20.148 3.21454L19.4451 1.50742C19.2024 1.44885 18.9263 1.41906 18.6166 1.41906H16.5832C16.3238 1.41906 16.0895 1.42742 15.8802 1.44416C15.6712 1.45252 15.4831 1.46561 15.3159 1.48232C15.3075 1.59145 15.2991 1.87627 15.2908 2.33588C15.2824 2.79599 15.2777 3.29841 15.2777 3.84215V5.56533C15.5458 5.57761 15.8266 5.58642 16.1192 5.58642H17.4869C18.0058 5.58642 18.3452 5.57437 18.5042 5.54926L18.7171 4.15546H19.671V8.10993H18.7171L18.5042 6.76634C18.3117 6.70776 17.9723 6.67897 17.4869 6.67897H16.1192C15.9186 6.67897 15.7174 6.68737 15.5167 6.70408C15.4358 6.70745 15.3559 6.71441 15.2777 6.71914V8.87512C15.2777 9.36885 15.2824 9.82073 15.2908 10.2308C15.2992 10.6324 15.3075 10.9049 15.3159 11.0472C15.5333 11.0722 15.7512 11.089 15.9686 11.0974C16.1944 11.1057 16.4626 11.1094 16.772 11.1094H18.4409C18.9095 11.1094 19.2359 11.1058 19.42 11.0974C19.6041 11.089 19.7547 11.0676 19.8719 11.0341L20.9393 9.10106L21.9305 9.2768L21.0648 12.3145C20.6883 12.2726 20.307 12.2438 19.9221 12.2271C19.5457 12.2187 19.1986 12.214 18.8807 12.214H11.9519L11.8886 11.3735L13.1569 11.0974C13.1904 11.0054 13.2155 10.6954 13.2322 10.1685C13.2489 9.63295 13.2573 8.9337 13.2573 8.07178V4.57019C13.2573 3.67508 13.2489 2.96344 13.2322 2.43629C13.2155 1.90946 13.1903 1.6034 13.1569 1.51947L11.8886 1.24332L11.9519 0.389767H18.3405C18.6585 0.389767 19.0351 0.386085 19.4702 0.377717C19.9053 0.369349 20.3154 0.347926 20.7003 0.314453L21.1402 3.07596Z"/>
  <path fill="#ffffff" fill-rule="evenodd" clip-rule="evenodd" d="M5.51204 0.389767C8.22334 0.389767 9.57899 1.34006 9.57899 3.23964C9.57885 3.97582 9.2776 4.59909 8.67522 5.10943C8.2298 5.49212 7.68306 5.74924 7.03539 5.88265C7.92008 6.00295 8.62583 6.26301 9.15221 6.66592C9.8384 7.17638 10.1815 7.88768 10.1815 8.79981C10.1815 9.85416 9.72586 10.6873 8.8138 11.2982C7.91004 11.9091 6.66686 12.214 5.08527 12.214H0.41581L0.365601 11.3735L1.62083 11.0974C1.65429 10.997 1.67941 10.6703 1.69614 10.1183C1.72125 9.55763 1.7343 8.87512 1.7343 8.07178V4.57019C1.7343 3.70016 1.72123 2.98852 1.69614 2.43629C1.67944 1.88494 1.65422 1.56666 1.62083 1.48232L0.365601 1.24332L0.41581 0.389767H5.51204ZM4.94769 6.70408C4.53801 6.70408 4.23642 6.70777 4.04393 6.71613C3.94529 6.71613 3.84855 6.71835 3.75472 6.72316V8.64918C3.75472 9.23496 3.75941 9.75378 3.76778 10.2057C3.78451 10.6492 3.80125 10.9384 3.81799 11.0723C3.97693 11.1057 4.19489 11.1393 4.47071 11.1727C4.75498 11.1978 4.99334 11.2099 5.18568 11.2099C7.06831 11.2099 8.01024 10.4778 8.01045 9.0137C8.01045 7.47408 6.9892 6.7042 4.94769 6.70408ZM3.79288 1.3568C3.78453 1.45766 3.77613 1.75454 3.76778 2.24751C3.75941 2.74123 3.75472 3.29822 3.75472 3.91747V5.62056C3.89744 5.626 4.03134 5.63119 4.1564 5.63663C4.35723 5.645 4.58786 5.64968 4.84727 5.64968C5.66711 5.64961 6.29506 5.46082 6.73012 5.08433C7.17344 4.70777 7.39489 4.16367 7.39489 3.45253C7.39489 2.7832 7.18552 2.26892 6.76727 1.9091C6.35732 1.54097 5.75079 1.35687 4.94769 1.3568H3.79288Z"/>
</svg>
