<svg xmlns="http://www.w3.org/2000/svg" width="97" height="13" viewBox="0 0 97 13" fill="none">
  <path fill="#ffffff" fill-rule="evenodd" clip-rule="evenodd" d="M90.354 0.487293C93.0368 0.487411 94.3787 1.45498 94.3787 3.38902C94.3786 4.36822 93.9707 5.17514 93.156 5.80877C92.7789 6.105 92.3497 6.32956 91.8701 6.48729L93.7614 9.22803C94.2799 9.97688 94.7409 10.512 95.1441 10.833C95.5556 11.1538 96.0121 11.368 96.514 11.4749L96.5022 12.2285C96.2059 12.2861 95.8803 12.3145 95.5264 12.3145C94.58 12.3145 93.7778 12.0591 93.1195 11.549C92.4693 11.0306 91.8061 10.1378 91.1313 8.8705L90.0281 6.7589H89.0325V8.04285C89.0325 9.59017 89.0655 10.5742 89.1313 10.994L90.28 11.2903L90.2177 12.1169H85.8227L85.7733 11.2903L87.0079 10.994C87.0079 10.8129 87.0125 10.4258 87.0207 9.83347C87.0372 9.23264 87.0454 8.63544 87.0454 8.04285V4.5989C87.0454 3.71853 87.0371 3.0186 87.0207 2.50013C87.0042 1.98197 86.9795 1.68095 86.9466 1.5984L85.6992 1.3268L85.7614 0.487293H90.354ZM89.0701 1.4384C89.0537 1.5129 89.0408 1.75182 89.0325 2.15445V5.80877H89.8227C90.5799 5.80877 91.1771 5.60301 91.6133 5.19149C92.0577 4.77997 92.28 4.21568 92.28 3.49964C92.28 2.12515 91.5511 1.4384 90.0943 1.4384H89.0701Z"/>
  <path fill="#ffffff" fill-rule="evenodd" clip-rule="evenodd" d="M18.0577 0.314453C19.1933 0.314526 20.1932 0.566049 21.0572 1.06803C21.9296 1.56185 22.6092 2.25329 23.0948 3.14211C23.5802 4.02263 23.8227 5.0436 23.8227 6.20384C23.8226 7.4382 23.5428 8.51211 22.9832 9.42556C22.4318 10.339 21.7119 11.047 20.8232 11.549C19.9427 12.0428 19.0123 12.2897 18.033 12.2898C16.8646 12.2898 15.8271 12.039 14.9219 11.5372C14.0166 11.0351 13.3042 10.3391 12.7856 9.45026C12.2754 8.56149 12.0203 7.53697 12.0202 6.37668C12.0202 5.21625 12.28 4.17911 12.7985 3.26556C13.3252 2.35198 14.0413 1.63133 14.9466 1.10458C15.8601 0.57797 16.8974 0.314453 18.0577 0.314453ZM17.8227 1.40087C16.7774 1.40087 15.9507 1.80877 15.3417 2.62359C14.7327 3.43017 14.4281 4.54133 14.4281 5.95692C14.4282 6.96083 14.5882 7.85005 14.9091 8.62359C15.2301 9.39705 15.6746 10.0018 16.2424 10.4379C16.8103 10.8741 17.4605 11.0927 18.193 11.0927C19.2218 11.0927 20.0248 10.7013 20.6009 9.91939C21.1769 9.13761 21.4651 8.06355 21.4651 6.69766C21.4651 5.10919 21.1313 3.82886 20.4646 2.85766C19.8062 1.88647 18.9256 1.40087 17.8227 1.40087Z"/>
  <path fill="#ffffff" d="M32.44 0.314453C32.9996 0.314453 33.584 0.372066 34.193 0.487293C34.8103 0.594289 35.3335 0.747046 35.7614 0.944577L35.8602 3.5984L34.8972 3.68532L34.3046 1.8947C34.0332 1.73017 33.7036 1.61125 33.317 1.53717C32.9386 1.46313 32.5843 1.4256 32.2553 1.42556C31.3088 1.42556 30.5305 1.63133 29.9214 2.04285C29.3207 2.44611 28.8725 2.99766 28.5763 3.69717C28.28 4.39676 28.1318 5.17865 28.1318 6.04285C28.1318 7.1375 28.3211 8.06754 28.6997 8.83297C29.0865 9.59008 29.6051 10.1709 30.2553 10.5742C30.9136 10.969 31.6464 11.1668 32.4528 11.1668C32.7736 11.1668 33.1233 11.1256 33.5017 11.0433C33.7117 10.9942 33.9085 10.9229 34.0943 10.8349V9.58655C34.0943 9.20814 34.086 8.8539 34.0696 8.52482C34.0531 8.1959 34.0366 7.94043 34.0202 7.75939L32.6503 7.52433L32.7116 6.67297H36.9091L36.9713 7.48779L36.0577 7.74655C36.0495 7.82886 36.0449 8.0017 36.0449 8.26507C36.0531 8.52845 36.0577 8.82935 36.0577 9.1668C36.0577 9.53698 36.0614 9.87838 36.0696 10.191C36.086 10.5038 36.1025 10.8458 36.119 11.2162C35.5842 11.5617 34.9546 11.8289 34.2306 12.0182C33.5147 12.1992 32.823 12.2897 32.1565 12.2898C30.9302 12.2898 29.8309 12.0721 28.8597 11.6359C27.8885 11.1915 27.1231 10.5367 26.5634 9.67248C26.0038 8.80016 25.724 7.72625 25.7239 6.45075C25.7239 5.28218 25.9957 4.23667 26.5387 3.31495C27.0819 2.38497 27.8557 1.65239 28.8597 1.11742C29.8638 0.582437 31.0572 0.314453 32.44 0.314453Z"/>
  <path fill="#ffffff" d="M47.5639 3.12927L46.5881 3.26556L45.8967 1.58655C45.6581 1.52894 45.3865 1.49964 45.0819 1.49964H43.0819C42.8268 1.49964 42.5963 1.50787 42.3906 1.52433C42.185 1.53255 42 1.54542 41.8355 1.56186C41.8273 1.66919 41.819 1.94933 41.8108 2.40137C41.8026 2.85391 41.798 3.34806 41.798 3.88285V5.57766C42.0617 5.58974 42.3378 5.5984 42.6256 5.5984H43.9708C44.4811 5.5984 44.8149 5.58655 44.9713 5.56186L45.1807 4.191H46.119V8.08038H45.1807L44.9713 6.7589C44.782 6.70128 44.4482 6.67297 43.9708 6.67297H42.6256C42.4283 6.67297 42.2304 6.68123 42.033 6.69766C41.9534 6.70098 41.8749 6.70783 41.798 6.71248V8.83297C41.798 9.31857 41.8026 9.76301 41.8108 10.1663C41.819 10.5614 41.8273 10.8294 41.8355 10.9693C42.0493 10.9939 42.2637 11.0104 42.4775 11.0187C42.6996 11.0269 42.9633 11.0305 43.2676 11.0305H44.9091C45.37 11.0305 45.691 11.0269 45.8721 11.0187C46.0531 11.0104 46.2013 10.9894 46.3165 10.9564L47.3664 9.05519L48.3412 9.22803L47.4898 12.2157C47.1195 12.1745 46.7445 12.1462 46.3659 12.1298C45.9957 12.1215 45.6543 12.1169 45.3417 12.1169H38.5269L38.4646 11.2903L39.7121 11.0187C39.745 10.9281 39.7697 10.6233 39.7861 10.1051C39.8026 9.57832 39.8108 8.89058 39.8108 8.04285V4.5989C39.8108 3.71853 39.8026 3.0186 39.7861 2.50013C39.7697 1.98197 39.7449 1.68095 39.7121 1.5984L38.4646 1.3268L38.5269 0.487293H44.8103C45.1231 0.487293 45.4935 0.483671 45.9214 0.475441C46.3494 0.46721 46.7527 0.44614 47.1313 0.413219L47.5639 3.12927Z"/>
  <path fill="#ffffff" d="M83.5886 3.12927L82.6128 3.26556L81.9214 1.58655C81.6828 1.52894 81.4111 1.49964 81.1066 1.49964H79.1066C78.8515 1.49964 78.621 1.50787 78.4153 1.52433C78.2097 1.53255 78.0247 1.54542 77.8602 1.56186C77.852 1.66919 77.8437 1.94933 77.8355 2.40137C77.8273 2.85391 77.8227 3.34806 77.8227 3.88285V5.57766C78.0863 5.58974 78.3625 5.5984 78.6503 5.5984H79.9955C80.5058 5.5984 80.8396 5.58655 80.996 5.56186L81.2054 4.191H82.1437V8.08038H81.2054L80.996 6.7589C80.8067 6.70128 80.4729 6.67297 79.9955 6.67297H78.6503C78.4529 6.67297 78.2551 6.68123 78.0577 6.69766C77.9781 6.70098 77.8996 6.70783 77.8227 6.71248V8.83297C77.8227 9.31857 77.8273 9.76301 77.8355 10.1663C77.8437 10.5614 77.852 10.8294 77.8602 10.9693C78.074 10.9939 78.2884 11.0104 78.5022 11.0187C78.7243 11.0269 78.988 11.0305 79.2923 11.0305H80.9338C81.3947 11.0305 81.7157 11.0269 81.8967 11.0187C82.0778 11.0104 82.226 10.9894 82.3412 10.9564L83.3911 9.05519L84.3659 9.22803L83.5145 12.2157C83.1442 12.1745 82.7692 12.1462 82.3906 12.1298C82.0204 12.1215 81.679 12.1169 81.3664 12.1169H74.5516L74.4893 11.2903L75.7367 11.0187C75.7697 10.9281 75.7944 10.6233 75.8108 10.1051C75.8273 9.57832 75.8355 8.89058 75.8355 8.04285V4.5989C75.8355 3.71853 75.8273 3.0186 75.8108 2.50013C75.7944 1.98197 75.7696 1.68095 75.7367 1.5984L74.4893 1.3268L74.5516 0.487293H80.835C81.1478 0.487293 81.5182 0.483671 81.9461 0.475441C82.3741 0.46721 82.7774 0.44614 83.156 0.413219L83.5886 3.12927Z"/>
  <path fill="#ffffff" d="M10.7363 3.69717L9.77329 3.79593L8.95847 1.56186C8.67041 1.52071 8.40703 1.49964 8.16835 1.49964H6.95847C6.76094 1.49964 6.5881 1.50787 6.43996 1.52433C6.43996 1.62309 6.43633 1.87001 6.4281 2.26507C6.41987 2.66013 6.41164 3.12565 6.40341 3.66063V7.6231C6.40341 8.43791 6.41164 9.15034 6.4281 9.75939C6.44456 10.3682 6.45642 10.7883 6.46465 11.0187L8.14366 11.2527L8.08243 12.1169H2.69971L2.63749 11.2527L4.3165 11.0187C4.3165 10.7883 4.32474 10.3682 4.34119 9.75939C4.35765 9.15034 4.36588 8.43791 4.36588 7.6231V3.66063C4.36588 3.12565 4.36226 2.66013 4.35403 2.26507C4.35403 1.87001 4.34942 1.6231 4.34119 1.52433C4.20961 1.50788 4.04105 1.49965 3.83551 1.49964H2.60094C2.34593 1.49964 2.08228 1.52075 1.81082 1.56186L1.00786 3.84532L0.0202026 3.72186L0.439956 0.413219C0.752713 0.429679 1.11485 0.44614 1.52638 0.462601C1.9379 0.479062 2.30827 0.487293 2.63749 0.487293H8.10712C8.43621 0.487284 8.80691 0.479054 9.21823 0.462601C9.62955 0.446147 9.99201 0.429673 10.3046 0.413219L10.7363 3.69717Z"/>
  <path fill="#ffffff" d="M59.8721 3.69717L58.9091 3.79593L58.0943 1.56186C57.8062 1.52071 57.5428 1.49964 57.3042 1.49964H56.0943C55.8967 1.49964 55.7239 1.50787 55.5758 1.52433C55.5758 1.62309 55.5721 1.87001 55.5639 2.26507C55.5557 2.66013 55.5474 3.12565 55.5392 3.66063V7.6231C55.5392 8.43791 55.5474 9.15034 55.5639 9.75939C55.5804 10.3682 55.5922 10.7883 55.6004 11.0187L57.2795 11.2527L57.2182 12.1169H51.8355L51.7733 11.2527L53.4523 11.0187C53.4523 10.7883 53.4605 10.3682 53.477 9.75939C53.4935 9.15034 53.5017 8.43791 53.5017 7.6231V3.66063C53.5017 3.12565 53.4981 2.66013 53.4898 2.26507C53.4898 1.87001 53.4852 1.6231 53.477 1.52433C53.3454 1.50788 53.1768 1.49965 52.9713 1.49964H51.7367C51.4817 1.49964 51.2181 1.52075 50.9466 1.56186L50.1437 3.84532L49.156 3.72186L49.5758 0.413219C49.8885 0.429679 50.2507 0.44614 50.6622 0.462601C51.0737 0.479062 51.4441 0.487293 51.7733 0.487293H57.2429C57.572 0.487284 57.9427 0.479054 58.354 0.462601C58.7654 0.446147 59.1278 0.429673 59.4404 0.413219L59.8721 3.69717Z"/>
  <path fill="#ffffff" d="M65.7121 1.3268L64.4775 1.5984C64.4034 1.75478 64.3659 2.75528 64.3659 4.5989V5.55198C64.5972 5.56861 64.8734 5.58103 65.1935 5.58655C65.6708 5.59478 66.2591 5.5984 66.9585 5.5984C67.6416 5.5984 68.2177 5.59478 68.6869 5.58655C69.0005 5.58105 69.2681 5.56853 69.4898 5.55198V4.5989C69.4898 2.75528 69.4523 1.75478 69.3782 1.5984L68.1684 1.3268L68.2059 0.487293H72.7985L72.8597 1.3268L71.638 1.5984C71.5968 1.68071 71.5639 1.97702 71.5392 2.48729C71.5228 2.99758 71.5145 3.70178 71.5145 4.5989V8.04285C71.5145 8.90705 71.5228 9.5984 71.5392 10.1169C71.5639 10.6272 71.5968 10.9281 71.638 11.0187L72.8597 11.2903L72.7985 12.1169H68.2059L68.1684 11.2903L69.3782 11.0187C69.4523 10.8294 69.4898 9.83709 69.4898 8.04285V6.7826C69.262 6.77142 68.9945 6.75823 68.6869 6.74705C68.2424 6.72235 67.6663 6.70951 66.9585 6.70951C66.2262 6.70951 65.6297 6.72237 65.1688 6.74705C64.864 6.75813 64.5961 6.77152 64.3659 6.7826V8.04285C64.3659 9.83709 64.4034 10.8294 64.4775 11.0187L65.7121 11.2903L65.6498 12.1169H61.0948L61.0325 11.2903L62.2553 11.0187C62.2882 10.9281 62.3129 10.6233 62.3293 10.1051C62.3458 9.57832 62.354 8.89058 62.354 8.04285V4.5989C62.354 3.71853 62.3458 3.0186 62.3293 2.50013C62.3129 1.98197 62.2882 1.68095 62.2553 1.5984L61.0325 1.3268L61.0948 0.487293H65.6498L65.7121 1.3268Z"/>
</svg>
