<svg xmlns="http://www.w3.org/2000/svg" width="25" height="13" viewBox="0 0 25 13" fill="none">
  <path fill="#ffffff" d="M18.5635 12.3145C17.3924 12.3145 16.3532 12.0629 15.446 11.5598C14.5388 11.0567 13.8254 10.3598 13.3058 9.46909C12.7945 8.57837 12.5388 7.55157 12.5388 6.38868C12.5388 5.22579 12.7986 4.18662 13.3182 3.27115C13.846 2.35569 14.5635 1.63404 15.4707 1.10621C16.3862 0.578371 17.4254 0.314453 18.5883 0.314453C19.7264 0.314453 20.7285 0.566 21.5945 1.06909C22.4687 1.56394 23.1491 2.25672 23.6357 3.14744C24.1223 4.02992 24.3656 5.0526 24.3656 6.21548C24.3656 7.4526 24.0852 8.52889 23.5243 9.44435C22.9718 10.3598 22.2501 11.0691 21.3594 11.5722C20.4769 12.067 19.545 12.3145 18.5635 12.3145ZM18.7243 11.1145C19.7553 11.1145 20.5594 10.7227 21.1367 9.9392C21.714 9.15569 22.0027 8.0794 22.0027 6.71033C22.0027 5.11858 21.6687 3.8361 21.0006 2.86291C20.3408 1.88971 19.4584 1.40311 18.3532 1.40311C17.3058 1.40311 16.4769 1.81136 15.8666 2.62786C15.2563 3.4361 14.9512 4.5495 14.9512 5.96806C14.9512 6.97425 15.112 7.86497 15.4336 8.64023C15.7553 9.41548 16.2006 10.0217 16.7697 10.4588C17.3388 10.8959 17.9903 11.1145 18.7243 11.1145Z"/>
  <path fill="#ffffff" d="M10.8192 0.413422L11.2522 3.70414L10.2872 3.80311L9.47074 1.56394C9.18208 1.5227 8.91816 1.50208 8.67899 1.50208H7.96146C7.8295 1.50208 7.66455 1.50208 7.46662 1.50208C7.26868 1.50208 7.09548 1.51033 6.94703 1.52682C6.94703 1.62579 6.9429 1.87322 6.93466 2.26909C6.92641 2.66497 6.91816 3.13095 6.90991 3.66703C6.90991 4.19487 6.90991 4.71858 6.90991 5.23816V7.63816C6.90991 8.45466 6.91816 9.16806 6.93466 9.77837C6.95115 10.3887 6.96352 10.8093 6.97177 11.0402L8.65424 11.2753L8.59239 12.1413H3.19857L3.13672 11.2753L4.81919 11.0402C4.81919 10.8093 4.82744 10.3887 4.84394 9.77837C4.86043 9.16806 4.86868 8.45466 4.86868 7.63816V5.23816C4.86868 4.71858 4.86868 4.19487 4.86868 3.66703C4.86868 3.13095 4.86455 2.66497 4.85631 2.26909C4.85631 1.87322 4.85218 1.62579 4.84394 1.52682C4.71198 1.51033 4.5429 1.50208 4.33672 1.50208C4.13878 1.50208 3.96971 1.50208 3.8295 1.50208H3.09961C2.84394 1.50208 2.58002 1.5227 2.30785 1.56394L1.50373 3.8526L0.514038 3.72889L0.934657 0.413422C1.24806 0.429917 1.61095 0.446412 2.02332 0.462907C2.43569 0.479402 2.80682 0.487649 3.13672 0.487649H8.61713C8.94703 0.487649 9.31816 0.479402 9.73053 0.462907C10.1429 0.446412 10.5058 0.429917 10.8192 0.413422Z"/>
</svg>
