<svg width="12" height="12" viewBox="0 0 12 12" fill="none" xmlns="http://www.w3.org/2000/svg">
<path fill-rule="evenodd" clip-rule="evenodd" d="M4 4C4 3.72386 4.22386 3.5 4.5 3.5H9.5C9.77614 3.5 10 3.72386 10 4V10C10 10.2761 9.77614 10.5 9.5 10.5H4.5C4.22386 10.5 4 10.2761 4 10V4ZM5 4.5V9.5H9V4.5H5Z" fill="#444444"/>
<path fill-rule="evenodd" clip-rule="evenodd" d="M2.5 1.5C2.22386 1.5 2 1.72386 2 2V8C2 8.27614 2.22386 8.5 2.5 8.5H4.5V7.5H3V2.5H7V4H8V2C8 1.72386 7.77614 1.5 7.5 1.5H2.5Z" fill="#444444"/>
</svg>
